<svg width="320" height="240" viewBox="0 0 320 240" fill="none" xmlns="http://www.w3.org/2000/svg">
<g clip-path="url(#clip0_2_5)">
<path d="M245 237.286C240.903 232.943 238.414 226.083 239.067 219.404C239.719 212.726 243.761 206.586 249.005 205.168C254.248 203.75 260.224 207.676 261.817 214.101C262.693 201.714 263.703 188.807 268.953 178.258C273.707 168.706 281.94 161.872 290.864 160.649C299.787 159.426 309.182 164.044 314.747 172.88C320.312 181.715 321.675 194.559 317.777 204.703C314.906 212.175 309.616 217.736 304.073 222.261C286.164 236.757 264.683 242.652 243.585 238.861L245 237.286Z" fill="#F2F2F2"/>
<path d="M305.923 164.3C298.56 171.823 291.806 180.238 285.757 189.421C276.291 203.743 268.631 219.802 263.044 237.036C262.635 238.293 264.262 238.841 264.666 237.597C273.808 209.588 288.402 184.9 307.113 165.793C307.953 164.935 306.756 163.449 305.923 164.3Z" fill="white"/>
<path d="M103.013 236.106C108.64 230.141 112.058 220.719 111.162 211.546C110.265 202.373 104.714 193.94 97.5123 191.992C90.3109 190.044 82.1017 195.436 79.9144 204.261C78.7106 187.247 77.3235 169.52 70.1127 155.031C63.5835 141.912 52.2749 132.524 40.0188 130.845C27.7628 129.166 14.8588 135.509 7.2151 147.644C-0.428541 159.779 -2.30006 177.421 3.05335 191.353C6.99702 201.617 14.2627 209.255 21.8752 215.469C46.162 235.294 76.2896 243.562 104.957 238.269" fill="#F2F2F2"/>
<path d="M19.3349 135.86C29.4476 146.193 38.725 157.75 47.0328 170.363C55.342 182.963 62.6573 196.545 68.876 210.917C72.352 218.979 75.4745 227.274 78.2297 235.763C78.7915 237.49 76.5561 238.241 76.0006 236.534C71.1205 221.567 65.0829 207.237 57.9743 193.748C50.9003 180.308 42.8037 167.761 33.7982 156.282C28.7047 149.793 23.3306 143.66 17.7003 137.911C16.5462 136.732 18.1904 134.691 19.3349 135.86Z" fill="white"/>
<path d="M229.701 239.475H95.4483V66.6745C95.4483 29.91 119.291 0 148.598 0H176.552C205.858 0 229.701 29.91 229.701 66.6745V239.475Z" fill="#F2F2F2"/>
<path d="M201.747 239.475H95.4483V66.6746C95.4189 52.5873 98.9749 38.856 105.598 27.48C105.843 27.0625 106.086 26.6504 106.337 26.2428C109.541 20.9716 113.354 16.3294 117.649 12.4693C117.892 12.2478 118.135 12.0302 118.383 11.8126C121.977 8.6922 125.865 6.14137 129.959 4.21812C130.202 4.10254 130.449 3.98673 130.697 3.87566C134.399 2.21829 138.236 1.083 142.139 0.490749C142.381 0.449291 142.629 0.416849 142.878 0.384407C146.68 -0.125674 150.516 -0.125674 154.319 0.384407C154.566 0.416849 154.815 0.449287 155.059 0.491193C158.961 1.08348 162.797 2.21863 166.499 3.87568C166.746 3.98676 166.994 4.10255 167.238 4.21836C171.28 6.11734 175.123 8.63011 178.679 11.7006C178.926 11.9135 179.173 12.1311 179.417 12.3488C181.825 14.5049 184.086 16.9069 186.179 19.5303C187.857 21.6345 189.42 23.8775 190.859 26.2442C191.109 26.6504 191.353 27.0625 191.597 27.4793C198.22 38.8554 201.776 52.587 201.747 66.6746V239.475Z" fill="#CCCCCC"/>
<path d="M193.103 162.188C196.354 162.188 198.989 158.882 198.989 154.805C198.989 150.728 196.354 147.422 193.103 147.422C189.853 147.422 187.218 150.728 187.218 154.805C187.218 158.882 189.853 162.188 193.103 162.188Z" fill="#6C63FF"/>
<path d="M218.703 234.299H214.194L212.048 212.48L218.704 212.48L218.703 234.299Z" fill="#FFB8B8"/>
<path d="M210.973 232.683H219.669V239.552H205.497C205.497 238.65 205.639 237.756 205.914 236.923C206.189 236.09 206.592 235.332 207.101 234.694C207.609 234.057 208.213 233.551 208.877 233.205C209.541 232.86 210.254 232.683 210.973 232.683Z" fill="#2F2E41"/>
<path d="M241.14 234.299H236.63L234.485 212.48L241.141 212.48L241.14 234.299Z" fill="#FFB8B8"/>
<path d="M233.409 232.683H242.106V239.552H227.934C227.934 238.65 228.075 237.756 228.351 236.923C228.626 236.09 229.029 235.332 229.538 234.694C230.046 234.057 230.65 233.551 231.314 233.205C231.978 232.86 232.69 232.683 233.409 232.683Z" fill="#2F2E41"/>
<path d="M196.082 156.267C195.758 155.668 195.542 154.986 195.45 154.271C195.358 153.555 195.393 152.823 195.551 152.126C195.709 151.429 195.987 150.784 196.366 150.237C196.744 149.689 197.213 149.252 197.741 148.957L213.07 95.9559L220.613 101.12L203.11 151.77C203.447 152.914 203.438 154.174 203.083 155.31C202.729 156.447 202.055 157.38 201.189 157.935C200.322 158.489 199.324 158.626 198.383 158.318C197.442 158.011 196.623 157.281 196.082 156.267Z" fill="#FFB8B8"/>
<path d="M238.836 166.227C238.335 165.866 237.903 165.372 237.571 164.78C237.238 164.187 237.013 163.51 236.912 162.797C236.81 162.084 236.835 161.351 236.983 160.651C237.132 159.95 237.401 159.3 237.772 158.744L233.023 102.678L241.607 103.17L243.581 158.318C244.284 159.162 244.715 160.299 244.794 161.515C244.873 162.731 244.594 163.941 244.009 164.916C243.424 165.891 242.574 166.563 241.621 166.804C240.668 167.046 239.677 166.84 238.836 166.227Z" fill="#FFB8B8"/>
<path d="M225.142 86.1387C230.132 86.1387 234.176 81.0648 234.176 74.8059C234.176 68.5469 230.132 63.473 225.142 63.473C220.153 63.473 216.108 68.5469 216.108 74.8059C216.108 81.0648 220.153 86.1387 225.142 86.1387Z" fill="#FFB8B8"/>
<path d="M238.779 153.475H211.543L211.576 153.21C211.625 152.812 216.43 113.325 212.886 100.407C212.53 99.1375 212.562 97.7479 212.974 96.5056C213.386 95.2633 214.15 94.2561 215.118 93.678C220.184 90.6855 229.907 87.0007 238.114 95.9431C239.322 97.2807 240.265 98.9524 240.869 100.826C241.473 102.7 241.721 104.724 241.594 106.738L238.779 153.475Z" fill="#6C63FF"/>
<path d="M216.774 119.161L204.512 116.04L210.26 98.954C210.604 97.2991 211.457 95.883 212.632 95.0161C213.807 94.1493 215.209 93.9025 216.529 94.33C217.849 94.7575 218.98 95.8243 219.673 97.2964C220.367 98.7686 220.567 100.526 220.23 102.183L216.774 119.161Z" fill="#6C63FF"/>
<path d="M232.478 124.955L231.741 103.757C231.182 99.7721 233.001 96.0051 235.797 95.3893C238.595 94.7758 241.326 97.5396 241.888 101.554L244.658 121.361L232.478 124.955Z" fill="#6C63FF"/>
<path d="M237.873 150.938C242.255 171.875 242.733 198.495 241.551 227.533L235.666 226.61L224.999 171.24L219.114 227.533L212.493 227.071C210.515 196.604 208.59 170.448 211.758 153.245L237.873 150.938Z" fill="#2F2E41"/>
<path d="M231.095 83.5642C229.41 85.8163 226.28 84.6073 226.06 81.5307C226.043 81.2918 226.044 81.0514 226.064 80.8128C226.177 79.45 226.805 78.2127 226.654 76.7738C226.62 76.4157 226.514 76.0744 226.345 75.7823C225.002 73.5263 221.85 76.7913 220.582 74.749C219.805 73.4967 220.719 71.525 220.122 70.1254C219.335 68.2781 217.004 69.1894 215.542 68.1777C213.915 67.0521 214.012 63.921 215.083 62.0166C216.389 59.694 218.679 58.4546 220.94 58.276C223.201 58.0974 225.447 58.8642 227.558 59.8963C229.956 61.0689 232.335 62.6895 233.811 65.3352C235.606 68.5527 235.779 72.8784 234.881 76.6407C234.335 78.9293 232.471 81.7251 231.095 83.5642Z" fill="#2F2E41"/>
<path d="M308.959 239.772H37.4023C37.2864 239.771 37.1754 239.713 37.0935 239.61C37.0116 239.507 36.9657 239.368 36.9657 239.222C36.9657 239.077 37.0116 238.937 37.0935 238.834C37.1754 238.731 37.2864 238.673 37.4023 238.673H308.959C309.075 238.673 309.186 238.731 309.268 238.834C309.35 238.937 309.395 239.077 309.395 239.222C309.395 239.368 309.35 239.507 309.268 239.61C309.186 239.713 309.075 239.771 308.959 239.772Z" fill="#3F3D56"/>
<path d="M172.506 189.411H124.69C124.06 189.415 123.455 189.106 123.006 188.551C122.558 187.996 122.304 187.241 122.299 186.451V52.5623C122.304 51.7723 122.558 51.017 123.006 50.4621C123.455 49.9071 124.06 49.5979 124.69 49.6021H172.506C173.135 49.5979 173.741 49.9071 174.189 50.4621C174.637 51.017 174.892 51.7723 174.897 52.5623V186.451C174.892 187.241 174.637 187.996 174.189 188.551C173.741 189.106 173.135 189.415 172.506 189.411Z" fill="white"/>
<path d="M174.897 92.9243H122.299V93.8471H174.897V92.9243Z" fill="#CCCCCC"/>
<path d="M175.08 145.577H122.483V146.499H175.08V145.577Z" fill="#CCCCCC"/>
<path d="M139.586 49.6022H138.851V189.872H139.586V49.6022Z" fill="#CCCCCC"/>
<path d="M157.977 49.6022H157.241V189.872H157.977V49.6022Z" fill="#CCCCCC"/>
</g>
<defs>
<clipPath id="clip0_2_5">
<rect width="320" height="240" fill="white"/>
</clipPath>
</defs>
</svg>
